<svg width="21" height="27" viewBox="0 0 21 27" fill="none" xmlns="http://www.w3.org/2000/svg">
<path d="M9.82708 26.1637C8.39727 24.1649 7.18047 22.4934 6.14546 21.0717L11.5791 26.4552L11.1729 26.1637C11.1729 26.1638 11.1728 26.1638 11.1727 26.1639C10.8507 26.6121 10.1489 26.612 9.82708 26.1637ZM10.5 14.8437C13.1751 14.8437 15.375 12.7481 15.375 10.125C15.375 7.50191 13.1751 5.40625 10.5 5.40625C7.82489 5.40625 5.625 7.50191 5.625 10.125C5.625 12.7481 7.82489 14.8437 10.5 14.8437Z" fill="#CD4949" stroke="#333333"/>
<path d="M2.98511 13.9128C3.2231 14.6524 3.51431 15.391 3.83995 16.1173C2.40199 14.1932 1.52261 12.6861 1.50029 9.99587L1.50029 9.99583C1.47696 7.20714 3.0521 4.17729 5.73465 2.58562C5.68123 2.63852 5.62814 2.69218 5.57543 2.74659C4.22571 4.13986 3.04095 6.09895 2.5128 8.38757C2.10946 10.1354 2.38495 12.0479 2.98511 13.9128Z" fill="white" stroke="white"/>
</svg>
